<svg xmlns="http://www.w3.org/2000/svg" viewBox="0 0 128 128">
  <rect width="128" height="128" rx="30" fill="#faf6ef"/>
  <circle cx="64" cy="64" r="52" fill="#f8b08d"/>
  <circle cx="64" cy="62" r="43" fill="#fff2d6"/>
  <path d="M31 50c-8 12-4 31 10 37 5-14 8-29 4-42-5 0-10 2-14 5Z" fill="#9a6a43"/>
  <path d="M97 50c8 12 4 31-10 37-5-14-8-29-4-42 5 0 10 2 14 5Z" fill="#9a6a43"/>
  <circle cx="64" cy="62" r="31" fill="#f5c980"/>
  <path d="M45 48c11-15 31-15 38 0-7-5-26-5-38 0Z" fill="#fff2d6" opacity=".9"/>
  <circle cx="53" cy="59" r="4.5" fill="#2f2118"/>
  <circle cx="75" cy="59" r="4.5" fill="#2f2118"/>
  <circle cx="55" cy="57" r="1.4" fill="#fff"/>
  <circle cx="77" cy="57" r="1.4" fill="#fff"/>
  <ellipse cx="64" cy="72" rx="17" ry="13" fill="#fff2d6"/>
  <path d="M59 68c0-3 10-3 10 0 0 3-3 5-5 5s-5-2-5-5Z" fill="#2f2118"/>
  <path d="M64 73c-1 6-9 7-12 2M64 73c1 6 9 7 12 2" fill="none" stroke="#2f2118" stroke-width="2.6" stroke-linecap="round"/>
  <path d="M47 92c10 8 24 8 34 0" fill="none" stroke="#5fae86" stroke-width="7" stroke-linecap="round"/>
  <path d="M91 34c2-5 10-5 12 0 2-5 10-4 11 2 2 9-10 15-11 16-1-1-14-8-12-18Z" fill="#cf5e3f"/>
</svg>
